# xmcd
# Copyright (C) 1995-1998 Ti Kan
#
# Track frame offsets:
#       182
#       16147
#       28355
#       39180
#       52915
#       63675
#       78825
#       91020
#       107417
#       127302
#       145230
#       161437
#       184242
#       197492
#       217237
#       236415
#       254557
#       271377
#       291895
#
# Disc length: 4089 seconds
#
# Revision: 0
# Processed by: cddbd v1.5.2PL0 Copyright (c) Steve Scherf et al.
# Submitted via: CD-Import v1.0
#
DISCID=100ff713
DTITLE=Tom Petty and The Heartbreakers - Greatest Hits
DYEAR=1993
DGENRE=Rock
TTITLE0=American Girl
TTITLE1=Breakdown
TTITLE2=Anything That's Rock and Roll
TTITLE3=Listen To Her Heart
TTITLE4=I Need To Know
TTITLE5=Refugee
TTITLE6=Don't Do Me Like That
TTITLE7=Even The Losers
TTITLE8=Here Comes My Girl
TTITLE9=The Waiting
TTITLE10=You Got Lucky
TTITLE11=Don't Come Around Here No More
TTITLE12=I Won't Back Down
TTITLE13=Runnin' Down A Dream
TTITLE14=Free Fallin'
TTITLE15=Learning To Fly
TTITLE16=Into The Great Wide Open
TTITLE17=Mary Jane's Last Dance
TTITLE18=Something In The Air
EXTD=
EXTT0=
EXTT1=
EXTT2=
EXTT3=
EXTT4=
EXTT5=
EXTT6=
EXTT7=
EXTT8=
EXTT9=
EXTT10=
EXTT11=
EXTT12=
EXTT13=
EXTT14=
EXTT15=
EXTT16=
EXTT17=
EXTT18=
PLAYORDER=
